<?xml version="1.0" encoding="utf-8"?>
<!-- Generator: Adobe Illustrator 21.0.0, SVG Export Plug-In . SVG Version: 6.00 Build 0)  -->
<svg version="1.1" id="Layer_1" xmlns="http://www.w3.org/2000/svg" xmlns:xlink="http://www.w3.org/1999/xlink" x="0px" y="0px"
	 viewBox="0 0 540.5 123.8" style="enable-background:new 0 0 540.5 123.8;" xml:space="preserve">
<style type="text/css">
	.st0{fill:#A71C20;}
</style>
<g>
	<path class="st0" d="M132.4,55.6l-3.6-10c9-4.1,17.9-6.8,29.8-6.8c22.4,0,34.9,11.4,34.9,33v50.1h-11.7v-12.4
		c-5.7,7.4-15.2,14.1-29.6,14.1c-15.2,0-30.6-8.6-30.6-25.7c0-17.4,14.3-26.6,35-26.6c10.5,0,17.9,1.4,25.2,3.5v-2.9
		c0-14.7-9-22.4-24.4-22.4C147.6,49.6,140,52.1,132.4,55.6 M133.8,97.5c0,10.5,9.5,16.5,20.6,16.5c15.1,0,27.4-9.2,27.4-22.2v-7.9
		c-6-1.7-14.1-3.5-24.1-3.5C142.4,80.3,133.8,87,133.8,97.5 M213.5,121.9h-12.2V39.9h12.2v21.4c6-13.6,17.9-23.5,33.4-22.8v13.2h-1
		c-17.9,0-32.5,12.8-32.5,37.6V121.9z M283.9,123.8c-23.9,0-42-19.5-42-42.6c0-23.3,18.1-43,42-43c15.5,0,25.2,6.5,32.8,14.6
		l-8.1,8.6c-6.5-6.8-13.8-12.4-24.9-12.4c-16.6,0-29.3,14.1-29.3,31.9c0,17.9,13,32,30.1,32c10.5,0,18.5-5.2,25-12.2l7.8,7.3
		C309.1,117.1,299.3,123.8,283.9,123.8 M334.8,121.9h-12.2V6.2h12.2v48c5.4-8.9,13.9-16,28.1-16c19.8,0,31.4,13.3,31.4,32.8v50.9
		H382V74c0-15.2-8.2-24.7-22.7-24.7c-14.1,0-24.6,10.3-24.6,25.7L334.8,121.9L334.8,121.9z M441.5,113.1c11.3,0,19.2-4.6,25.8-11.6
		l7.6,6.8c-8.2,9.2-18.2,15.4-33.8,15.4c-22.5,0-40.9-17.3-40.9-42.8c0-23.8,16.6-42.8,39.3-42.8c24.3,0,38.2,19.3,38.2,43.4
		c0,1.1,0,2.4-0.2,3.8h-65C414.4,103.2,427,113.1,441.5,113.1 M465.4,76.4c-1.3-14.9-9.8-27.9-26.2-27.9c-14.3,0-25,11.9-26.6,27.9
		H465.4z M511.4,123.5c-11.7,0-24.7-4.6-33.9-12l6.2-8.7c8.9,6.7,18.7,10.5,28.4,10.5c9.8,0,17-5.1,17-13v-0.3
		c0-8.2-9.7-11.4-20.4-14.4c-12.8-3.6-27.1-8.1-27.1-23.1V62c0-14.1,11.7-23.5,27.9-23.5c10,0,21.1,3.5,29.5,9l-5.5,9.2
		c-7.6-4.9-16.3-7.9-24.3-7.9c-9.7,0-15.9,5.1-15.9,11.9V61c0,7.8,10.1,10.8,21.1,14.1c12.7,3.8,26.3,8.7,26.3,23.5v0.3
		C540.5,114.4,527.7,123.5,511.4,123.5 M88.1,57c0-4.4,3.6-7.9,7.9-7.9c1.3,0,2.5,0.3,3.6,0.9c-1.9-4.5-5.6-8-10.1-9.8
		C82.8,42.8,78,49.3,78,57v26h23.1v-5.1h-13V57z M62.1,57c0-11.5,9.4-20.9,20.9-20.9c2.3,0,4.4,0.4,6.5,1c0.8,0.3,1.5,0.5,2.3,0.9
		c0.7,0.3,1.4,0.7,2.1,1.1c1,0.6,2,1.3,2.9,2.1c-0.5-0.8-0.9-1.5-1.4-2.2c-0.3-0.5-0.7-0.9-1.1-1.4c-0.4-0.5-0.7-0.9-1.1-1.3
		c-4.3-4.8-10.1-8.2-16.6-9.6C62.5,29.7,52,42.1,52,57v39h49.1v-5h-39V57z M36.1,57c0-18.7,15.2-33.9,33.9-33.9
		c2.2,0,4.4,0.2,6.5,0.6c1.3,0.2,2.5,0.6,3.7,0.9c1.2,0.4,2.4,0.8,3.5,1.3c3.8,1.7,7.2,4,10.1,6.9c-1.5-2.3-3.2-4.4-5.1-6.4
		c-0.6-0.6-1.2-1.2-1.8-1.7c-0.6-0.6-1.2-1.1-1.8-1.6c-6.1-5-13.5-8.5-21.6-9.7C42.3,16.6,26,34.9,26,57v52l75,0v-5.1H36.1V57z
		 M114,55.4c0-0.2,0-0.4,0-0.7c-0.1-2.2-0.3-4.4-0.6-6.5c-0.2-1.3-0.5-2.6-0.8-3.9c-0.1-0.4-0.2-0.9-0.3-1.3c-0.5-2-1.1-3.9-1.8-5.9
		c-0.4-1.1-0.9-2.3-1.4-3.4c-1.4-3.2-3.1-6.2-5.1-9.1C93.6,9.8,76.5,0,57,0C25.6,0,0,25.6,0,57v65h114V57
		C114,56.5,114,55.9,114,55.4 M103.9,116.9H10.1V57c0-25.9,21-46.9,46.9-46.9c2.2,0,4.4,0.2,6.5,0.5c1.8,0.2,3.5,0.6,5.2,1
		c1.7,0.4,3.3,1,4.9,1.6c6.3,2.4,11.9,6.1,16.5,10.7c0.6,0.6,1.2,1.3,1.8,2c0.6,0.7,1.2,1.4,1.8,2.1c2.1,2.6,3.9,5.4,5.3,8.4
		c0.3,0.5,0.5,1.1,0.7,1.6c0.2,0.5,0.5,1.1,0.7,1.7c2.2,5.4,3.4,11.3,3.4,17.4L103.9,116.9L103.9,116.9z"/>
</g>
</svg>
